<?xml version="1.0" encoding="UTF-8" standalone="no"?>
<!DOCTYPE svg PUBLIC "-//W3C//DTD SVG 1.1//EN"
 "http://www.w3.org/Graphics/SVG/1.1/DTD/svg11.dtd">
<!-- Generated by graphviz version 2.26.3 (20100126.1600)
 -->
<!-- Title: controllers_diagram Pages: 1 -->
<svg width="862pt" height="736pt"
 viewBox="0.00 0.00 862.00 736.17" xmlns="http://www.w3.org/2000/svg" xmlns:xlink="http://www.w3.org/1999/xlink">
<g id="graph1" class="graph" transform="scale(1 1) rotate(0) translate(4 732.169)">
<title>controllers_diagram</title>
<polygon fill="white" stroke="white" points="-4,5 -4,-732.169 859,-732.169 859,5 -4,5"/>
<!-- _diagram_info -->
<g id="node1" class="node"><title>_diagram_info</title>
<text text-anchor="start" x="611" y="-164.3" font-family="Times Roman,serif" font-size="13.00">Controllers diagram</text>
<text text-anchor="start" x="611" y="-147.3" font-family="Times Roman,serif" font-size="13.00">Date: Jul 01 2013 &#45; 13:45</text>
<text text-anchor="start" x="611" y="-130.3" font-family="Times Roman,serif" font-size="13.00">Migration version: 20130626221538</text>
<text text-anchor="start" x="611" y="-113.3" font-family="Times Roman,serif" font-size="13.00">Generated by RailRoady 1.1.0</text>
<text text-anchor="start" x="611" y="-96.3" font-family="Times Roman,serif" font-size="13.00">http://railroady.prestonlee.com</text>
</g>
<!-- ApplicationController -->
<g id="node2" class="node"><title>ApplicationController</title>
<polyline fill="none" stroke="black" points="167.136,-308.54 381.136,-308.54 "/>
<path fill="none" stroke="black" d="M381.136,-308.54C387.136,-308.54 393.136,-314.54 393.136,-320.54"/>
<polyline fill="none" stroke="black" points="393.136,-320.54 393.136,-398.54 "/>
<path fill="none" stroke="black" d="M393.136,-398.54C393.136,-404.54 387.136,-410.54 381.136,-410.54"/>
<polyline fill="none" stroke="black" points="381.136,-410.54 167.136,-410.54 "/>
<path fill="none" stroke="black" d="M167.136,-410.54C161.136,-410.54 155.136,-404.54 155.136,-398.54"/>
<polyline fill="none" stroke="black" points="155.136,-398.54 155.136,-320.54 "/>
<path fill="none" stroke="black" d="M155.136,-320.54C155.136,-314.54 161.136,-308.54 167.136,-308.54"/>
<text text-anchor="middle" x="274.136" y="-393.94" font-family="Times Roman,serif" font-size="14.00">ApplicationController</text>
<polyline fill="none" stroke="black" points="155.136,-384.54 393.136,-384.54 "/>
<text text-anchor="start" x="163.136" y="-367.94" font-family="Times Roman,serif" font-size="14.00">_one_time_conditions_valid_40?</text>
<polyline fill="none" stroke="black" points="155.136,-358.54 393.136,-358.54 "/>
<polyline fill="none" stroke="black" points="155.136,-334.54 393.136,-334.54 "/>
<text text-anchor="start" x="163.136" y="-317.94" font-family="Times Roman,serif" font-size="14.00">_layout</text>
</g>
<!-- FeaturesController -->
<g id="node3" class="node"><title>FeaturesController</title>
<polyline fill="none" stroke="black" points="411.529,-76.3607 532.529,-76.3607 "/>
<path fill="none" stroke="black" d="M532.529,-76.3607C538.529,-76.3607 544.529,-82.3607 544.529,-88.3607"/>
<polyline fill="none" stroke="black" points="544.529,-88.3607 544.529,-274.361 "/>
<path fill="none" stroke="black" d="M544.529,-274.361C544.529,-280.361 538.529,-286.361 532.529,-286.361"/>
<polyline fill="none" stroke="black" points="532.529,-286.361 411.529,-286.361 "/>
<path fill="none" stroke="black" d="M411.529,-286.361C405.529,-286.361 399.529,-280.361 399.529,-274.361"/>
<polyline fill="none" stroke="black" points="399.529,-274.361 399.529,-88.3607 "/>
<path fill="none" stroke="black" d="M399.529,-88.3607C399.529,-82.3607 405.529,-76.3607 411.529,-76.3607"/>
<text text-anchor="middle" x="472.029" y="-269.761" font-family="Times Roman,serif" font-size="14.00">FeaturesController</text>
<polyline fill="none" stroke="black" points="399.529,-260.361 544.529,-260.361 "/>
<text text-anchor="start" x="407.529" y="-243.761" font-family="Times Roman,serif" font-size="14.00">create</text>
<text text-anchor="start" x="407.529" y="-225.761" font-family="Times Roman,serif" font-size="14.00">destroy</text>
<text text-anchor="start" x="407.529" y="-207.761" font-family="Times Roman,serif" font-size="14.00">edit</text>
<text text-anchor="start" x="407.529" y="-189.761" font-family="Times Roman,serif" font-size="14.00">index</text>
<text text-anchor="start" x="407.529" y="-171.761" font-family="Times Roman,serif" font-size="14.00">new</text>
<text text-anchor="start" x="407.529" y="-153.761" font-family="Times Roman,serif" font-size="14.00">show</text>
<text text-anchor="start" x="407.529" y="-135.761" font-family="Times Roman,serif" font-size="14.00">update</text>
<polyline fill="none" stroke="black" points="399.529,-126.361 544.529,-126.361 "/>
<polyline fill="none" stroke="black" points="399.529,-102.361 544.529,-102.361 "/>
<text text-anchor="start" x="407.529" y="-85.7607" font-family="Times Roman,serif" font-size="14.00">_layout</text>
</g>
<!-- ApplicationController&#45;&gt;FeaturesController -->
<g id="edge2" class="edge"><title>ApplicationController&#45;&gt;FeaturesController</title>
<path fill="none" stroke="black" d="M330.844,-308.481C352.202,-289.251 376.792,-267.11 399.404,-246.751"/>
</g>
<!-- FantasyteamsController -->
<g id="node5" class="node"><title>FantasyteamsController</title>
<polyline fill="none" stroke="black" points="194.214,-1.5 351.214,-1.5 "/>
<path fill="none" stroke="black" d="M351.214,-1.5C357.214,-1.5 363.214,-7.5 363.214,-13.5"/>
<polyline fill="none" stroke="black" points="363.214,-13.5 363.214,-181.5 "/>
<path fill="none" stroke="black" d="M363.214,-181.5C363.214,-187.5 357.214,-193.5 351.214,-193.5"/>
<polyline fill="none" stroke="black" points="351.214,-193.5 194.214,-193.5 "/>
<path fill="none" stroke="black" d="M194.214,-193.5C188.214,-193.5 182.214,-187.5 182.214,-181.5"/>
<polyline fill="none" stroke="black" points="182.214,-181.5 182.214,-13.5 "/>
<path fill="none" stroke="black" d="M182.214,-13.5C182.214,-7.5 188.214,-1.5 194.214,-1.5"/>
<text text-anchor="middle" x="272.714" y="-176.9" font-family="Times Roman,serif" font-size="14.00">FantasyteamsController</text>
<polyline fill="none" stroke="black" points="182.214,-167.5 363.214,-167.5 "/>
<text text-anchor="start" x="190.214" y="-150.9" font-family="Times Roman,serif" font-size="14.00">create</text>
<text text-anchor="start" x="190.214" y="-132.9" font-family="Times Roman,serif" font-size="14.00">destroy</text>
<text text-anchor="start" x="190.214" y="-114.9" font-family="Times Roman,serif" font-size="14.00">index</text>
<text text-anchor="start" x="190.214" y="-96.9" font-family="Times Roman,serif" font-size="14.00">new</text>
<text text-anchor="start" x="190.214" y="-78.9" font-family="Times Roman,serif" font-size="14.00">show</text>
<text text-anchor="start" x="190.214" y="-60.9" font-family="Times Roman,serif" font-size="14.00">update</text>
<polyline fill="none" stroke="black" points="182.214,-51.5 363.214,-51.5 "/>
<polyline fill="none" stroke="black" points="182.214,-27.5 363.214,-27.5 "/>
<text text-anchor="start" x="190.214" y="-10.9" font-family="Times Roman,serif" font-size="14.00">_layout</text>
</g>
<!-- ApplicationController&#45;&gt;FantasyteamsController -->
<g id="edge4" class="edge"><title>ApplicationController&#45;&gt;FantasyteamsController</title>
<path fill="none" stroke="black" d="M273.858,-308.394C273.681,-275.776 273.447,-232.477 273.236,-193.602"/>
</g>
<!-- DraftsController -->
<g id="node6" class="node"><title>DraftsController</title>
<polyline fill="none" stroke="black" points="25.36,-488.21 129.36,-488.21 "/>
<path fill="none" stroke="black" d="M129.36,-488.21C135.36,-488.21 141.36,-494.21 141.36,-500.21"/>
<polyline fill="none" stroke="black" points="141.36,-500.21 141.36,-576.21 "/>
<path fill="none" stroke="black" d="M141.36,-576.21C141.36,-582.21 135.36,-588.21 129.36,-588.21"/>
<polyline fill="none" stroke="black" points="129.36,-588.21 25.36,-588.21 "/>
<path fill="none" stroke="black" d="M25.36,-588.21C19.36,-588.21 13.36,-582.21 13.36,-576.21"/>
<polyline fill="none" stroke="black" points="13.36,-576.21 13.36,-500.21 "/>
<path fill="none" stroke="black" d="M13.36,-500.21C13.36,-494.21 19.36,-488.21 25.36,-488.21"/>
<text text-anchor="middle" x="77.36" y="-571.61" font-family="Times Roman,serif" font-size="14.00">DraftsController</text>
<polyline fill="none" stroke="black" points="13.36,-562.21 141.36,-562.21 "/>
<polyline fill="none" stroke="black" points="13.36,-538.21 141.36,-538.21 "/>
<polyline fill="none" stroke="black" points="13.36,-514.21 141.36,-514.21 "/>
<text text-anchor="start" x="21.36" y="-497.61" font-family="Times Roman,serif" font-size="14.00">_layout</text>
</g>
<!-- ApplicationController&#45;&gt;DraftsController -->
<g id="edge6" class="edge"><title>ApplicationController&#45;&gt;DraftsController</title>
<path fill="none" stroke="black" d="M217.748,-410.74C191.059,-434.972 159.295,-463.814 132.737,-487.929"/>
</g>
<!-- WelcomeController -->
<g id="node7" class="node"><title>WelcomeController</title>
<polyline fill="none" stroke="black" points="411.884,-474.992 534.884,-474.992 "/>
<path fill="none" stroke="black" d="M534.884,-474.992C540.884,-474.992 546.884,-480.992 546.884,-486.992"/>
<polyline fill="none" stroke="black" points="546.884,-486.992 546.884,-582.992 "/>
<path fill="none" stroke="black" d="M546.884,-582.992C546.884,-588.992 540.884,-594.992 534.884,-594.992"/>
<polyline fill="none" stroke="black" points="534.884,-594.992 411.884,-594.992 "/>
<path fill="none" stroke="black" d="M411.884,-594.992C405.884,-594.992 399.884,-588.992 399.884,-582.992"/>
<polyline fill="none" stroke="black" points="399.884,-582.992 399.884,-486.992 "/>
<path fill="none" stroke="black" d="M399.884,-486.992C399.884,-480.992 405.884,-474.992 411.884,-474.992"/>
<text text-anchor="middle" x="473.384" y="-578.392" font-family="Times Roman,serif" font-size="14.00">WelcomeController</text>
<polyline fill="none" stroke="black" points="399.884,-568.992 546.884,-568.992 "/>
<text text-anchor="start" x="407.884" y="-552.392" font-family="Times Roman,serif" font-size="14.00">aboutus</text>
<text text-anchor="start" x="407.884" y="-534.392" font-family="Times Roman,serif" font-size="14.00">index</text>
<polyline fill="none" stroke="black" points="399.884,-524.992 546.884,-524.992 "/>
<polyline fill="none" stroke="black" points="399.884,-500.992 546.884,-500.992 "/>
<text text-anchor="start" x="407.884" y="-484.392" font-family="Times Roman,serif" font-size="14.00">_layout</text>
</g>
<!-- ApplicationController&#45;&gt;WelcomeController -->
<g id="edge8" class="edge"><title>ApplicationController&#45;&gt;WelcomeController</title>
<path fill="none" stroke="black" d="M332.302,-410.76C355.046,-430.787 381.297,-453.903 404.943,-474.725"/>
</g>
<!-- AthletesController -->
<g id="node8" class="node"><title>AthletesController</title>
<polyline fill="none" stroke="black" points="218.093,-516.669 337.093,-516.669 "/>
<path fill="none" stroke="black" d="M337.093,-516.669C343.093,-516.669 349.093,-522.669 349.093,-528.669"/>
<polyline fill="none" stroke="black" points="349.093,-528.669 349.093,-714.669 "/>
<path fill="none" stroke="black" d="M349.093,-714.669C349.093,-720.669 343.093,-726.669 337.093,-726.669"/>
<polyline fill="none" stroke="black" points="337.093,-726.669 218.093,-726.669 "/>
<path fill="none" stroke="black" d="M218.093,-726.669C212.093,-726.669 206.093,-720.669 206.093,-714.669"/>
<polyline fill="none" stroke="black" points="206.093,-714.669 206.093,-528.669 "/>
<path fill="none" stroke="black" d="M206.093,-528.669C206.093,-522.669 212.093,-516.669 218.093,-516.669"/>
<text text-anchor="middle" x="277.593" y="-710.069" font-family="Times Roman,serif" font-size="14.00">AthletesController</text>
<polyline fill="none" stroke="black" points="206.093,-700.669 349.093,-700.669 "/>
<text text-anchor="start" x="214.093" y="-684.069" font-family="Times Roman,serif" font-size="14.00">create</text>
<text text-anchor="start" x="214.093" y="-666.069" font-family="Times Roman,serif" font-size="14.00">draft_me</text>
<text text-anchor="start" x="214.093" y="-648.069" font-family="Times Roman,serif" font-size="14.00">edit</text>
<text text-anchor="start" x="214.093" y="-630.069" font-family="Times Roman,serif" font-size="14.00">index</text>
<text text-anchor="start" x="214.093" y="-612.069" font-family="Times Roman,serif" font-size="14.00">show</text>
<text text-anchor="start" x="214.093" y="-594.069" font-family="Times Roman,serif" font-size="14.00">show_position</text>
<text text-anchor="start" x="214.093" y="-576.069" font-family="Times Roman,serif" font-size="14.00">update</text>
<polyline fill="none" stroke="black" points="206.093,-566.669 349.093,-566.669 "/>
<polyline fill="none" stroke="black" points="206.093,-542.669 349.093,-542.669 "/>
<text text-anchor="start" x="214.093" y="-526.069" font-family="Times Roman,serif" font-size="14.00">_layout</text>
</g>
<!-- ApplicationController&#45;&gt;AthletesController -->
<g id="edge10" class="edge"><title>ApplicationController&#45;&gt;AthletesController</title>
<path fill="none" stroke="black" d="M274.811,-410.703C275.208,-440.8 275.724,-479.986 276.205,-516.405"/>
</g>
<!-- ProteamsController -->
<g id="node9" class="node"><title>ProteamsController</title>
<polyline fill="none" stroke="black" points="13,-78.5411 139,-78.5411 "/>
<path fill="none" stroke="black" d="M139,-78.5411C145,-78.5411 151,-84.5411 151,-90.5411"/>
<polyline fill="none" stroke="black" points="151,-90.5411 151,-276.541 "/>
<path fill="none" stroke="black" d="M151,-276.541C151,-282.541 145,-288.541 139,-288.541"/>
<polyline fill="none" stroke="black" points="139,-288.541 13,-288.541 "/>
<path fill="none" stroke="black" d="M13,-288.541C7,-288.541 1,-282.541 1,-276.541"/>
<polyline fill="none" stroke="black" points="1,-276.541 1,-90.5411 "/>
<path fill="none" stroke="black" d="M1,-90.5411C1,-84.5411 7,-78.5411 13,-78.5411"/>
<text text-anchor="middle" x="76" y="-271.941" font-family="Times Roman,serif" font-size="14.00">ProteamsController</text>
<polyline fill="none" stroke="black" points="1,-262.541 151,-262.541 "/>
<text text-anchor="start" x="9" y="-245.941" font-family="Times Roman,serif" font-size="14.00">create</text>
<text text-anchor="start" x="9" y="-227.941" font-family="Times Roman,serif" font-size="14.00">destroy</text>
<text text-anchor="start" x="9" y="-209.941" font-family="Times Roman,serif" font-size="14.00">edit</text>
<text text-anchor="start" x="9" y="-191.941" font-family="Times Roman,serif" font-size="14.00">index</text>
<text text-anchor="start" x="9" y="-173.941" font-family="Times Roman,serif" font-size="14.00">new</text>
<text text-anchor="start" x="9" y="-155.941" font-family="Times Roman,serif" font-size="14.00">show</text>
<text text-anchor="start" x="9" y="-137.941" font-family="Times Roman,serif" font-size="14.00">update</text>
<polyline fill="none" stroke="black" points="1,-128.541 151,-128.541 "/>
<polyline fill="none" stroke="black" points="1,-104.541 151,-104.541 "/>
<text text-anchor="start" x="9" y="-87.9411" font-family="Times Roman,serif" font-size="14.00">_layout</text>
</g>
<!-- ApplicationController&#45;&gt;ProteamsController -->
<g id="edge12" class="edge"><title>ApplicationController&#45;&gt;ProteamsController</title>
<path fill="none" stroke="black" d="M216.561,-308.397C196.108,-290.23 172.777,-269.505 151.078,-250.231"/>
</g>
<!-- OmniauthCallbacksController -->
<g id="node4" class="node"><title>OmniauthCallbacksController</title>
<polyline fill="none" stroke="black" points="615,-259.5 809,-259.5 "/>
<path fill="none" stroke="black" d="M809,-259.5C815,-259.5 821,-265.5 821,-271.5"/>
<polyline fill="none" stroke="black" points="821,-271.5 821,-367.5 "/>
<path fill="none" stroke="black" d="M821,-367.5C821,-373.5 815,-379.5 809,-379.5"/>
<polyline fill="none" stroke="black" points="809,-379.5 615,-379.5 "/>
<path fill="none" stroke="black" d="M615,-379.5C609,-379.5 603,-373.5 603,-367.5"/>
<polyline fill="none" stroke="black" points="603,-367.5 603,-271.5 "/>
<path fill="none" stroke="black" d="M603,-271.5C603,-265.5 609,-259.5 615,-259.5"/>
<text text-anchor="middle" x="712" y="-362.9" font-family="Times Roman,serif" font-size="14.00">OmniauthCallbacksController</text>
<polyline fill="none" stroke="black" points="603,-353.5 821,-353.5 "/>
<text text-anchor="start" x="611" y="-336.9" font-family="Times Roman,serif" font-size="14.00">all</text>
<text text-anchor="start" x="611" y="-318.9" font-family="Times Roman,serif" font-size="14.00">twitter</text>
<polyline fill="none" stroke="black" points="603,-309.5 821,-309.5 "/>
<polyline fill="none" stroke="black" points="603,-285.5 821,-285.5 "/>
<text text-anchor="start" x="611" y="-268.9" font-family="Times Roman,serif" font-size="14.00">_layout</text>
</g>
</g>
</svg>
