<?xml version="1.0" encoding="UTF-8" standalone="no"?>
<!DOCTYPE svg PUBLIC "-//W3C//DTD SVG 1.1//EN"
 "http://www.w3.org/Graphics/SVG/1.1/DTD/svg11.dtd">
<!-- Generated by graphviz version 2.26.3 (20100126.1600)
 -->
<!-- Title: models_diagram Pages: 1 -->
<svg width="1206pt" height="548pt"
 viewBox="0.00 0.00 1206.00 548.00" xmlns="http://www.w3.org/2000/svg" xmlns:xlink="http://www.w3.org/1999/xlink">
<g id="graph1" class="graph" transform="scale(1 1) rotate(0) translate(4 544)">
<title>models_diagram</title>
<polygon fill="white" stroke="white" points="-4,5 -4,-544 1203,-544 1203,5 -4,5"/>
<!-- _diagram_info -->
<g id="node1" class="node"><title>_diagram_info</title>
<text text-anchor="start" x="8" y="-417.8" font-family="Times Roman,serif" font-size="13.00">Models diagram</text>
<text text-anchor="start" x="8" y="-400.8" font-family="Times Roman,serif" font-size="13.00">Date: Jul 01 2013 &#45; 13:45</text>
<text text-anchor="start" x="8" y="-383.8" font-family="Times Roman,serif" font-size="13.00">Migration version: 20130626221538</text>
<text text-anchor="start" x="8" y="-366.8" font-family="Times Roman,serif" font-size="13.00">Generated by RailRoady 1.1.0</text>
<text text-anchor="start" x="8" y="-349.8" font-family="Times Roman,serif" font-size="13.00">http://railroady.prestonlee.com</text>
</g>
<!-- Feature -->
<g id="node2" class="node"><title>Feature</title>
<polyline fill="none" stroke="black" points="279.5,-325 420.5,-325 "/>
<path fill="none" stroke="black" d="M420.5,-325C426.5,-325 432.5,-331 432.5,-337"/>
<polyline fill="none" stroke="black" points="432.5,-337 432.5,-437 "/>
<path fill="none" stroke="black" d="M432.5,-437C432.5,-443 426.5,-449 420.5,-449"/>
<polyline fill="none" stroke="black" points="420.5,-449 279.5,-449 "/>
<path fill="none" stroke="black" d="M279.5,-449C273.5,-449 267.5,-443 267.5,-437"/>
<polyline fill="none" stroke="black" points="267.5,-437 267.5,-337 "/>
<path fill="none" stroke="black" d="M267.5,-337C267.5,-331 273.5,-325 279.5,-325"/>
<text text-anchor="middle" x="350" y="-432.4" font-family="Times Roman,serif" font-size="14.00">Feature</text>
<polyline fill="none" stroke="black" points="267.5,-423 432.5,-423 "/>
<text text-anchor="start" x="275.5" y="-406.4" font-family="Times Roman,serif" font-size="14.00">id :integer</text>
<text text-anchor="start" x="275.5" y="-388.4" font-family="Times Roman,serif" font-size="14.00">created_at :datetime</text>
<text text-anchor="start" x="275.5" y="-370.4" font-family="Times Roman,serif" font-size="14.00">updated_at :datetime</text>
<text text-anchor="start" x="275.5" y="-352.4" font-family="Times Roman,serif" font-size="14.00">title :string</text>
<text text-anchor="start" x="275.5" y="-334.4" font-family="Times Roman,serif" font-size="14.00">body :string</text>
</g>
<!-- User -->
<g id="node3" class="node"><title>User</title>
<polyline fill="none" stroke="black" points="462,-235 692,-235 "/>
<path fill="none" stroke="black" d="M692,-235C698,-235 704,-241 704,-247"/>
<polyline fill="none" stroke="black" points="704,-247 704,-527 "/>
<path fill="none" stroke="black" d="M704,-527C704,-533 698,-539 692,-539"/>
<polyline fill="none" stroke="black" points="692,-539 462,-539 "/>
<path fill="none" stroke="black" d="M462,-539C456,-539 450,-533 450,-527"/>
<polyline fill="none" stroke="black" points="450,-527 450,-247 "/>
<path fill="none" stroke="black" d="M450,-247C450,-241 456,-235 462,-235"/>
<text text-anchor="middle" x="577" y="-522.4" font-family="Times Roman,serif" font-size="14.00">User</text>
<polyline fill="none" stroke="black" points="450,-513 704,-513 "/>
<text text-anchor="start" x="458" y="-496.4" font-family="Times Roman,serif" font-size="14.00">id :integer</text>
<text text-anchor="start" x="458" y="-478.4" font-family="Times Roman,serif" font-size="14.00">email :string</text>
<text text-anchor="start" x="458" y="-460.4" font-family="Times Roman,serif" font-size="14.00">encrypted_password :string</text>
<text text-anchor="start" x="458" y="-442.4" font-family="Times Roman,serif" font-size="14.00">reset_password_token :string</text>
<text text-anchor="start" x="458" y="-424.4" font-family="Times Roman,serif" font-size="14.00">reset_password_sent_at :datetime</text>
<text text-anchor="start" x="458" y="-406.4" font-family="Times Roman,serif" font-size="14.00">remember_created_at :datetime</text>
<text text-anchor="start" x="458" y="-388.4" font-family="Times Roman,serif" font-size="14.00">sign_in_count :integer</text>
<text text-anchor="start" x="458" y="-370.4" font-family="Times Roman,serif" font-size="14.00">current_sign_in_at :datetime</text>
<text text-anchor="start" x="458" y="-352.4" font-family="Times Roman,serif" font-size="14.00">last_sign_in_at :datetime</text>
<text text-anchor="start" x="458" y="-334.4" font-family="Times Roman,serif" font-size="14.00">current_sign_in_ip :string</text>
<text text-anchor="start" x="458" y="-316.4" font-family="Times Roman,serif" font-size="14.00">last_sign_in_ip :string</text>
<text text-anchor="start" x="458" y="-298.4" font-family="Times Roman,serif" font-size="14.00">created_at :datetime</text>
<text text-anchor="start" x="458" y="-280.4" font-family="Times Roman,serif" font-size="14.00">updated_at :datetime</text>
<text text-anchor="start" x="458" y="-262.4" font-family="Times Roman,serif" font-size="14.00">provider :string</text>
<text text-anchor="start" x="458" y="-244.4" font-family="Times Roman,serif" font-size="14.00">uid :string</text>
</g>
<!-- Proteam -->
<g id="node4" class="node"><title>Proteam</title>
<polyline fill="none" stroke="black" points="733.5,-289 1000.5,-289 "/>
<path fill="none" stroke="black" d="M1000.5,-289C1006.5,-289 1012.5,-295 1012.5,-301"/>
<polyline fill="none" stroke="black" points="1012.5,-301 1012.5,-473 "/>
<path fill="none" stroke="black" d="M1012.5,-473C1012.5,-479 1006.5,-485 1000.5,-485"/>
<polyline fill="none" stroke="black" points="1000.5,-485 733.5,-485 "/>
<path fill="none" stroke="black" d="M733.5,-485C727.5,-485 721.5,-479 721.5,-473"/>
<polyline fill="none" stroke="black" points="721.5,-473 721.5,-301 "/>
<path fill="none" stroke="black" d="M721.5,-301C721.5,-295 727.5,-289 733.5,-289"/>
<text text-anchor="middle" x="867" y="-468.4" font-family="Times Roman,serif" font-size="14.00">Proteam</text>
<polyline fill="none" stroke="black" points="721.5,-459 1012.5,-459 "/>
<text text-anchor="start" x="729.5" y="-442.4" font-family="Times Roman,serif" font-size="14.00">id :integer</text>
<text text-anchor="start" x="729.5" y="-424.4" font-family="Times Roman,serif" font-size="14.00">created_at :datetime</text>
<text text-anchor="start" x="729.5" y="-406.4" font-family="Times Roman,serif" font-size="14.00">updated_at :datetime</text>
<text text-anchor="start" x="729.5" y="-388.4" font-family="Times Roman,serif" font-size="14.00">teamname :string</text>
<text text-anchor="start" x="729.5" y="-370.4" font-family="Times Roman,serif" font-size="14.00">opponentfumblesforced :integer</text>
<text text-anchor="start" x="729.5" y="-352.4" font-family="Times Roman,serif" font-size="14.00">opponentoffensiveyardsperplay :integer</text>
<text text-anchor="start" x="729.5" y="-334.4" font-family="Times Roman,serif" font-size="14.00">opponentscore :integer</text>
<text text-anchor="start" x="729.5" y="-316.4" font-family="Times Roman,serif" font-size="14.00">opponenttouchdowns :integer</text>
<text text-anchor="start" x="729.5" y="-298.4" font-family="Times Roman,serif" font-size="14.00">teamseasonid :integer</text>
</g>
<!-- Fantasyteam -->
<g id="node5" class="node"><title>Fantasyteam</title>
<polyline fill="none" stroke="black" points="1041.5,-316 1182.5,-316 "/>
<path fill="none" stroke="black" d="M1182.5,-316C1188.5,-316 1194.5,-322 1194.5,-328"/>
<polyline fill="none" stroke="black" points="1194.5,-328 1194.5,-446 "/>
<path fill="none" stroke="black" d="M1194.5,-446C1194.5,-452 1188.5,-458 1182.5,-458"/>
<polyline fill="none" stroke="black" points="1182.5,-458 1041.5,-458 "/>
<path fill="none" stroke="black" d="M1041.5,-458C1035.5,-458 1029.5,-452 1029.5,-446"/>
<polyline fill="none" stroke="black" points="1029.5,-446 1029.5,-328 "/>
<path fill="none" stroke="black" d="M1029.5,-328C1029.5,-322 1035.5,-316 1041.5,-316"/>
<text text-anchor="middle" x="1112" y="-441.4" font-family="Times Roman,serif" font-size="14.00">Fantasyteam</text>
<polyline fill="none" stroke="black" points="1029.5,-432 1194.5,-432 "/>
<text text-anchor="start" x="1037.5" y="-415.4" font-family="Times Roman,serif" font-size="14.00">id :integer</text>
<text text-anchor="start" x="1037.5" y="-397.4" font-family="Times Roman,serif" font-size="14.00">teamname :string</text>
<text text-anchor="start" x="1037.5" y="-379.4" font-family="Times Roman,serif" font-size="14.00">owner :string</text>
<text text-anchor="start" x="1037.5" y="-361.4" font-family="Times Roman,serif" font-size="14.00">feepaid :boolean</text>
<text text-anchor="start" x="1037.5" y="-343.4" font-family="Times Roman,serif" font-size="14.00">created_at :datetime</text>
<text text-anchor="start" x="1037.5" y="-325.4" font-family="Times Roman,serif" font-size="14.00">updated_at :datetime</text>
</g>
<!-- Athlete -->
<g id="node6" class="node"><title>Athlete</title>
<polyline fill="none" stroke="black" points="1037.5,-1 1186.5,-1 "/>
<path fill="none" stroke="black" d="M1186.5,-1C1192.5,-1 1198.5,-7 1198.5,-13"/>
<polyline fill="none" stroke="black" points="1198.5,-13 1198.5,-185 "/>
<path fill="none" stroke="black" d="M1198.5,-185C1198.5,-191 1192.5,-197 1186.5,-197"/>
<polyline fill="none" stroke="black" points="1186.5,-197 1037.5,-197 "/>
<path fill="none" stroke="black" d="M1037.5,-197C1031.5,-197 1025.5,-191 1025.5,-185"/>
<polyline fill="none" stroke="black" points="1025.5,-185 1025.5,-13 "/>
<path fill="none" stroke="black" d="M1025.5,-13C1025.5,-7 1031.5,-1 1037.5,-1"/>
<text text-anchor="middle" x="1112" y="-180.4" font-family="Times Roman,serif" font-size="14.00">Athlete</text>
<polyline fill="none" stroke="black" points="1025.5,-171 1198.5,-171 "/>
<text text-anchor="start" x="1033.5" y="-154.4" font-family="Times Roman,serif" font-size="14.00">id :integer</text>
<text text-anchor="start" x="1033.5" y="-136.4" font-family="Times Roman,serif" font-size="14.00">created_at :datetime</text>
<text text-anchor="start" x="1033.5" y="-118.4" font-family="Times Roman,serif" font-size="14.00">updated_at :datetime</text>
<text text-anchor="start" x="1033.5" y="-100.4" font-family="Times Roman,serif" font-size="14.00">player_name :string</text>
<text text-anchor="start" x="1033.5" y="-82.4" font-family="Times Roman,serif" font-size="14.00">nfldataid :integer</text>
<text text-anchor="start" x="1033.5" y="-64.4" font-family="Times Roman,serif" font-size="14.00">position :string</text>
<text text-anchor="start" x="1033.5" y="-46.4" font-family="Times Roman,serif" font-size="14.00">age :integer</text>
<text text-anchor="start" x="1033.5" y="-28.4" font-family="Times Roman,serif" font-size="14.00">team :string</text>
<text text-anchor="start" x="1033.5" y="-10.4" font-family="Times Roman,serif" font-size="14.00">fantasyteamid :integer</text>
</g>
<!-- Fantasyteam&#45;&gt;Athlete -->
<g id="edge2" class="edge"><title>Fantasyteam&#45;&gt;Athlete</title>
<path fill="none" stroke="#5090d9" d="M1112,-307.706C1112,-276.704 1112,-240.651 1112,-207.32"/>
<ellipse fill="none" stroke="#5090d9" cx="1112" cy="-311.809" rx="4" ry="4"/>
<polygon fill="#5090d9" stroke="#5090d9" points="1112,-207.072 1116.5,-197.072 1112,-202.072 1112,-197.072 1112,-197.072 1112,-197.072 1112,-202.072 1107.5,-197.072 1112,-207.072 1112,-207.072"/>
</g>
</g>
</svg>
