<?xml version="1.0" encoding="UTF-8" standalone="no"?>
<!DOCTYPE svg PUBLIC "-//W3C//DTD SVG 1.1//EN"
 "http://www.w3.org/Graphics/SVG/1.1/DTD/svg11.dtd">
<!-- Generated by graphviz version 2.26.3 (20100126.1600)
 -->
<!-- Title: models_diagram Pages: 1 -->
<svg width="748pt" height="176pt"
 viewBox="0.00 0.00 748.00 176.00" xmlns="http://www.w3.org/2000/svg" xmlns:xlink="http://www.w3.org/1999/xlink">
<g id="graph1" class="graph" transform="scale(1 1) rotate(0) translate(4 172)">
<title>models_diagram</title>
<polygon fill="white" stroke="white" points="-4,5 -4,-172 745,-172 745,5 -4,5"/>
<!-- _diagram_info -->
<g id="node1" class="node"><title>_diagram_info</title>
<text text-anchor="start" x="8" y="-151.8" font-family="Times Roman,serif" font-size="13.00">Models diagram</text>
<text text-anchor="start" x="8" y="-134.8" font-family="Times Roman,serif" font-size="13.00">Date: Jul 01 2013 &#45; 13:45</text>
<text text-anchor="start" x="8" y="-117.8" font-family="Times Roman,serif" font-size="13.00">Migration version: 20130626221538</text>
<text text-anchor="start" x="8" y="-100.8" font-family="Times Roman,serif" font-size="13.00">Generated by RailRoady 1.1.0</text>
<text text-anchor="start" x="8" y="-83.8" font-family="Times Roman,serif" font-size="13.00">http://railroady.prestonlee.com</text>
</g>
<!-- Feature -->
<g id="node2" class="node"><title>Feature</title>
<ellipse fill="none" stroke="black" cx="317" cy="-121" rx="48.7904" ry="18.3848"/>
<text text-anchor="middle" x="317" y="-117.4" font-family="Times Roman,serif" font-size="14.00">Feature</text>
</g>
<!-- User -->
<g id="node3" class="node"><title>User</title>
<ellipse fill="none" stroke="black" cx="418" cy="-121" rx="33.9411" ry="18.3848"/>
<text text-anchor="middle" x="418" y="-117.4" font-family="Times Roman,serif" font-size="14.00">User</text>
</g>
<!-- Proteam -->
<g id="node4" class="node"><title>Proteam</title>
<ellipse fill="none" stroke="black" cx="522" cy="-121" rx="51.8276" ry="18.3848"/>
<text text-anchor="middle" x="522" y="-117.4" font-family="Times Roman,serif" font-size="14.00">Proteam</text>
</g>
<!-- Fantasyteam -->
<g id="node5" class="node"><title>Fantasyteam</title>
<ellipse fill="none" stroke="black" cx="666" cy="-121" rx="74.2462" ry="18.3848"/>
<text text-anchor="middle" x="666" y="-117.4" font-family="Times Roman,serif" font-size="14.00">Fantasyteam</text>
</g>
<!-- Athlete -->
<g id="node6" class="node"><title>Athlete</title>
<ellipse fill="none" stroke="black" cx="666" cy="-19" rx="46.8775" ry="18.3848"/>
<text text-anchor="middle" x="666" y="-15.4" font-family="Times Roman,serif" font-size="14.00">Athlete</text>
</g>
<!-- Fantasyteam&#45;&gt;Athlete -->
<g id="edge2" class="edge"><title>Fantasyteam&#45;&gt;Athlete</title>
<path fill="none" stroke="#f4ed14" d="M666,-94.0151C666,-79.8348 666,-62.4446 666,-47.9795"/>
<ellipse fill="none" stroke="#f4ed14" cx="666" cy="-98.2916" rx="4" ry="4"/>
<polygon fill="#f4ed14" stroke="#f4ed14" points="666,-47.5898 670.5,-37.5897 666,-42.5898 666,-37.5898 666,-37.5898 666,-37.5898 666,-42.5898 661.5,-37.5898 666,-47.5898 666,-47.5898"/>
</g>
</g>
</svg>
